<?xml version="1.0" encoding="UTF-8" standalone="no"?>
<!DOCTYPE svg PUBLIC "-//W3C//DTD SVG 1.1//EN" "http://www.w3.org/Graphics/SVG/1.1/DTD/svg11.dtd">
<svg width="100%" height="100%" viewBox="0 0 60 60" version="1.1" xmlns="http://www.w3.org/2000/svg" xmlns:xlink="http://www.w3.org/1999/xlink" xml:space="preserve" xmlns:serif="http://www.serif.com/" style="fill-rule:evenodd;clip-rule:evenodd;stroke-linejoin:round;stroke-miterlimit:2;">
    <g transform="matrix(1.20884,0,0,1.20884,-5.660782,-5.059911)">
        <path d="M27.349,18C27.121,18.963 27,19.967 27,21C27,28.18 32.82,34 40,34C41.033,34 42.037,33.878 43,33.65L43,35C43,39.418 39.418,43 35,43L22.159,43L16.724,48.694C16.101,49.347 15,48.906 15,48.004L15,43L14.588,42.989C10.361,42.775 7,39.28 7,35L7,26C7,21.582 10.582,18 15,18L27.349,18ZM42.35,27.593C41.615,27.855 40.825,28 40,28C36.134,28 33,24.866 33,21C33,20.174 33.143,19.383 33.405,18.648L42.35,27.593Z" style="fill:rgb(51,51,51);fill-rule:nonzero;"/>
        <path d="M14.173,43.789C9.686,43.371 6.173,39.596 6.173,35L6.173,26C6.173,21.125 10.125,17.173 15,17.173L27.349,17.173C27.601,17.173 27.84,17.288 27.997,17.487C28.154,17.685 28.212,17.944 28.154,18.19C27.941,19.092 27.827,20.033 27.827,21C27.827,27.723 33.277,33.173 40,33.173C40.967,33.173 41.908,33.058 42.81,32.845C43.056,32.787 43.315,32.845 43.513,33.002C43.712,33.159 43.827,33.398 43.827,33.65L43.827,35C43.827,39.875 39.875,43.827 35,43.827L22.513,43.827L17.322,49.265C16.184,50.458 14.173,49.652 14.173,48.004L14.173,43.789ZM15,48.004C15,48.906 16.101,49.347 16.724,48.694L22.159,43L35,43C39.418,43 43,39.418 43,35L43,33.65C42.037,33.878 41.033,34 40,34C32.82,34 27,28.18 27,21C27,19.967 27.121,18.963 27.349,18L15,18C10.582,18 7,21.582 7,26L7,35C7,39.28 10.361,42.775 14.588,42.989L15,43L15,48.004ZM42.628,28.372C41.807,28.665 40.923,28.827 40,28.827C35.677,28.827 32.173,25.323 32.173,21C32.173,20.076 32.333,19.192 32.626,18.37C32.722,18.103 32.947,17.904 33.224,17.841C33.5,17.779 33.79,17.863 33.99,18.063L42.935,27.008C43.135,27.208 43.219,27.498 43.157,27.774C43.095,28.051 42.895,28.276 42.628,28.372ZM42.35,27.593L33.405,18.648C33.143,19.383 33,20.174 33,21C33,24.866 36.134,28 40,28C40.825,28 41.615,27.855 42.35,27.593Z" style="fill:white;"/>
    </g>
    <g transform="matrix(1.20884,0,0,1.20884,-5.660782,-5.059911)">
        <path d="M25,20.667C25.687,20.667 26.356,20.743 27.001,20.884C27.001,20.922 27,20.961 27,21C27,21.676 27.051,22.34 27.15,22.988C26.47,22.78 25.748,22.667 25,22.667C20.95,22.667 17.667,25.95 17.667,30C17.667,34.05 20.95,37.334 25,37.334C28.572,37.334 31.545,34.779 32.198,31.398C32.76,31.821 33.357,32.198 33.984,32.526C32.882,36.453 29.279,39.334 25,39.334C19.846,39.334 15.667,35.154 15.667,30C15.667,24.846 19.846,20.667 25,20.667ZM28.334,31.5C28.886,31.5 29.334,31.948 29.334,32.5C29.334,33.052 28.886,33.5 28.334,33.5L21.667,33.5C21.115,33.5 20.667,33.052 20.667,32.5C20.667,31.948 21.115,31.5 21.667,31.5L28.334,31.5ZM22.509,26.5C23.061,26.5 23.509,26.948 23.509,27.5C23.509,28.052 23.061,28.5 22.509,28.5L22.5,28.5C21.948,28.5 21.5,28.052 21.5,27.5C21.5,26.948 21.948,26.5 22.5,26.5L22.509,26.5ZM27.509,26.5C28.061,26.5 28.509,26.948 28.509,27.5C28.509,28.052 28.061,28.5 27.509,28.5L27.5,28.5C26.948,28.5 26.5,28.052 26.5,27.5C26.5,26.948 26.948,26.5 27.5,26.5L27.509,26.5Z" style="fill:rgb(255,251,31);fill-rule:nonzero;"/>
    </g>
    <g transform="matrix(1.20884,0,0,1.20884,-5.660782,-5.059911)">
        <path d="M40,9C46.627,9 52,14.373 52,21C52,27.627 46.627,33 40,33C33.373,33 28,27.627 28,21C28,14.373 33.373,9 40,9ZM33.108,16.936C32.405,18.128 32,19.516 32,21C32,25.418 35.582,29 40,29C41.483,29 42.871,28.594 44.062,27.891L33.108,16.936ZM40,13C38.516,13 37.127,13.405 35.937,14.108L46.891,25.061C47.594,23.871 48,22.483 48,21C48,16.582 44.418,13 40,13Z" style="fill:rgb(255,41,41);fill-rule:nonzero;"/>
        <path d="M40,8.173C47.084,8.173 52.827,13.916 52.827,21C52.827,28.084 47.084,33.827 40,33.827C32.916,33.827 27.173,28.084 27.173,21C27.173,13.916 32.916,8.173 40,8.173ZM40,9C33.373,9 28,14.373 28,21C28,27.627 33.373,33 40,33C46.627,33 52,27.627 52,21C52,14.373 46.627,9 40,9ZM40,13C44.418,13 48,16.582 48,21C48,22.483 47.594,23.871 46.891,25.061L35.937,14.108C37.127,13.405 38.516,13 40,13ZM40,13.827C39.059,13.827 38.16,14.009 37.337,14.339L46.66,23.662C46.99,22.839 47.173,21.941 47.173,21C47.173,17.039 43.961,13.827 40,13.827ZM33.108,16.936L44.062,27.891C42.871,28.594 41.483,29 40,29C35.582,29 32,25.418 32,21C32,19.516 32.405,18.127 33.108,16.936ZM33.339,18.337C33.009,19.16 32.827,20.059 32.827,21C32.827,24.961 36.039,28.173 40,28.173C40.941,28.173 41.839,27.991 42.662,27.661L33.339,18.337Z" style="fill:white;"/>
    </g>
</svg>
