<?xml version="1.0" encoding="UTF-8" standalone="no"?>
<!DOCTYPE svg PUBLIC "-//W3C//DTD SVG 1.1//EN" "http://www.w3.org/Graphics/SVG/1.1/DTD/svg11.dtd">
<svg width="100%" height="100%" viewBox="0 0 60 60" version="1.1" xmlns="http://www.w3.org/2000/svg" xmlns:xlink="http://www.w3.org/1999/xlink" xml:space="preserve" xmlns:serif="http://www.serif.com/" style="fill-rule:evenodd;clip-rule:evenodd;stroke-linejoin:round;stroke-miterlimit:2;">
    <g transform="matrix(1.20884,0,0,1.20884,-5.660782,-5.059911)">
        <path d="M27.349,18C27.121,18.963 27,19.967 27,21C27,28.18 32.82,34 40,34C41.033,34 42.037,33.878 43,33.65L43,35C43,39.418 39.418,43 35,43L22.159,43L16.724,48.694C16.101,49.347 15,48.906 15,48.004L15,43L14.588,42.989C10.361,42.775 7,39.28 7,35L7,26C7,21.582 10.582,18 15,18L27.349,18ZM42.35,27.593C41.615,27.855 40.825,28 40,28C36.134,28 33,24.866 33,21C33,20.174 33.143,19.383 33.405,18.648L42.35,27.593Z" style="fill:rgb(51,51,51);fill-rule:nonzero;"/>
    </g>
    <g transform="matrix(1.20884,0,0,1.20884,-5.660782,-5.059911)">
        <path d="M25,20.667C25.687,20.667 26.356,20.743 27.001,20.884C27.001,20.922 27,20.961 27,21C27,21.676 27.051,22.34 27.15,22.988C26.47,22.78 25.748,22.667 25,22.667C20.95,22.667 17.667,25.95 17.667,30C17.667,34.05 20.95,37.334 25,37.334C28.572,37.334 31.545,34.779 32.198,31.398C32.76,31.821 33.357,32.198 33.984,32.526C32.882,36.453 29.279,39.334 25,39.334C19.846,39.334 15.667,35.154 15.667,30C15.667,24.846 19.846,20.667 25,20.667ZM28.334,31.5C28.886,31.5 29.334,31.948 29.334,32.5C29.334,33.052 28.886,33.5 28.334,33.5L21.667,33.5C21.115,33.5 20.667,33.052 20.667,32.5C20.667,31.948 21.115,31.5 21.667,31.5L28.334,31.5ZM22.509,26.5C23.061,26.5 23.509,26.948 23.509,27.5C23.509,28.052 23.061,28.5 22.509,28.5L22.5,28.5C21.948,28.5 21.5,28.052 21.5,27.5C21.5,26.948 21.948,26.5 22.5,26.5L22.509,26.5ZM27.509,26.5C28.061,26.5 28.509,26.948 28.509,27.5C28.509,28.052 28.061,28.5 27.509,28.5L27.5,28.5C26.948,28.5 26.5,28.052 26.5,27.5C26.5,26.948 26.948,26.5 27.5,26.5L27.509,26.5Z" style="fill:rgb(255,251,31);fill-rule:nonzero;"/>
    </g>
    <g transform="matrix(1.20884,0,0,1.20884,-5.660782,-5.059911)">
        <path d="M40,9C46.627,9 52,14.373 52,21C52,27.627 46.627,33 40,33C33.373,33 28,27.627 28,21C28,14.373 33.373,9 40,9ZM33.108,16.936C32.405,18.128 32,19.516 32,21C32,25.418 35.582,29 40,29C41.483,29 42.871,28.594 44.062,27.891L33.108,16.936ZM40,13C38.516,13 37.127,13.405 35.937,14.108L46.891,25.061C47.594,23.871 48,22.483 48,21C48,16.582 44.418,13 40,13Z" style="fill:rgb(255,41,41);fill-rule:nonzero;"/>
    </g>
</svg>
